<svg width="1915" height="3639" viewBox="0 0 1915 3639" fill="none" xmlns="http://www.w3.org/2000/svg">
<g clip-path="url(#clip0_2198_711)">
<g opacity="0.3">
<path d="M-119.701 3638.83C-109.378 3638.83 -99.0554 3634.96 -91.2142 3627.11L203.773 3332.13C219.456 3316.44 219.456 3290.94 203.773 3275.25C196.131 3267.61 186.007 3263.44 175.287 3263.44C164.567 3263.44 154.443 3267.61 146.801 3275.25L-148.187 3570.24C-155.83 3577.88 -159.998 3587.91 -159.998 3598.73C-159.998 3609.45 -155.83 3619.57 -148.187 3627.21C-140.246 3634.96 -130.023 3638.83 -119.701 3638.83ZM175.287 3265.43C185.51 3265.43 195.138 3269.4 202.285 3276.64C217.173 3291.53 217.173 3315.85 202.285 3330.74L-92.703 3625.72C-107.591 3640.61 -131.909 3640.61 -146.797 3625.72C-154.043 3618.48 -158.013 3608.85 -158.013 3598.73C-158.013 3588.5 -154.043 3578.88 -146.797 3571.73L148.29 3276.64C155.436 3269.4 165.064 3265.43 175.287 3265.43Z" fill="#00F0B5"/>
<path d="M-107.79 3564.38C-97.4678 3564.38 -87.1452 3560.51 -79.304 3552.67L215.684 3257.68C231.366 3242 231.366 3216.49 215.684 3200.81C208.041 3193.17 197.917 3189 187.197 3189C176.478 3189 166.354 3193.17 158.711 3200.81L-136.277 3495.8C-143.919 3503.44 -148.088 3513.47 -148.088 3524.29C-148.088 3535 -143.919 3545.13 -136.277 3552.77C-128.336 3560.51 -118.113 3564.38 -107.79 3564.38ZM187.197 3190.99C197.421 3190.99 207.048 3194.96 214.195 3202.2C229.083 3217.09 229.083 3241.41 214.195 3256.3L-80.7928 3551.28C-95.6812 3566.17 -119.999 3566.17 -134.887 3551.28C-142.133 3544.04 -146.103 3534.41 -146.103 3524.29C-146.103 3514.06 -142.133 3504.43 -134.887 3497.29L160.2 3202.2C167.346 3194.96 176.974 3190.99 187.197 3190.99Z" fill="#00F0B5"/>
</g>
<path d="M1690.24 1843.02C1761.83 1777.4 1805.68 1657.05 1918.06 1675.22C2030.19 1693.34 2070.53 1838.63 2158.69 1918.75C2254.74 2006.04 2448.1 2045.59 2448.6 2157.34C2449.1 2271.32 2250.54 2237.79 2160.37 2299.31C2088.56 2348.3 2084.02 2502.39 1985.4 2473.32C1880.7 2442.46 1845.65 2329.78 1762.58 2254.78C1670.08 2171.28 1556.1 2154.51 1512.82 2046.67C1472.61 1946.47 1620.84 1906.64 1690.24 1843.02Z" fill="url(#paint0_linear_2198_711)"/>
<g opacity="0.4">
<path d="M1699.48 2222.04L1675 2246.43L1676.57 2248L1701.06 2223.61L1699.48 2222.04Z" fill="#00F0B5"/>
<path d="M1723.97 2222.03L1699.49 2246.42L1701.06 2247.99L1725.54 2223.6L1723.97 2222.03Z" fill="#00F0B5"/>
<path d="M1748.45 2222.01L1723.97 2246.41L1725.55 2247.98L1750.03 2223.58L1748.45 2222.01Z" fill="#00F0B5"/>
<path d="M1772.94 2222.01L1748.46 2246.4L1750.03 2247.97L1774.51 2223.57L1772.94 2222.01Z" fill="#00F0B5"/>
<path d="M1797.42 2222L1772.95 2246.39L1774.52 2247.96L1799 2223.57L1797.42 2222Z" fill="#00F0B5"/>
</g>
<g opacity="0.4">
<path d="M243.449 1581.59C230.96 1549.87 204.934 1533.58 173.897 1524.35C142.837 1515.11 106.869 1512.96 74.5729 1509.45C41.5398 1505.86 4.7136 1499.32 -29.1926 1501.12C-63.0699 1502.92 -93.9148 1513.03 -115.012 1542.66C-135.489 1571.41 -131.136 1603.12 -121.3 1636.6C-118.842 1644.97 -116.046 1653.43 -113.213 1661.99C-110.381 1670.54 -107.512 1679.17 -104.918 1687.87C-99.73 1705.26 -95.6272 1722.9 -95.0829 1740.61C-94.4864 1760.03 -98.1639 1780.3 -103.243 1800.59C-105.783 1810.73 -108.676 1820.89 -111.563 1830.96C-114.45 1841.02 -117.331 1850.99 -119.853 1860.78C-129.952 1899.95 -134.208 1935.83 -110.211 1962.24C-84.5872 1990.45 -45.2886 2002.35 -4.11537 2001.45C37.0541 2000.54 80.0248 1986.83 112.904 1963.9C141.247 1944.13 151.192 1912.29 156.955 1876.69C159.839 1858.88 161.666 1840.21 164.245 1821.64C166.822 1803.08 170.145 1784.67 176.013 1767.48C181.64 1751 190.191 1734.94 199.458 1719.19C208.738 1703.41 218.709 1687.98 227.245 1672.65C244.312 1641.99 255.446 1612.05 243.449 1581.59Z" stroke="#00F0B5"/>
<path d="M193.99 1615.05C184.174 1590.12 163.717 1577.31 139.297 1570.05C114.855 1562.78 86.5503 1561.09 61.1145 1558.32C35.0958 1555.5 6.11724 1550.35 -20.5672 1551.77C-47.2229 1553.18 -71.4723 1561.13 -88.0576 1584.42C-104.149 1607.02 -100.735 1631.95 -92.9928 1658.3C-91.0582 1664.88 -88.8567 1671.55 -86.6261 1678.28C-84.3964 1685.01 -82.1377 1691.82 -80.0947 1698.66C-76.0088 1712.36 -72.7747 1726.26 -72.3458 1740.22C-71.8757 1755.52 -74.7747 1771.49 -78.7745 1787.47C-80.7748 1795.46 -83.0529 1803.46 -85.3257 1811.38C-87.5993 1819.31 -89.8673 1827.16 -91.8524 1834.86C-99.8048 1865.7 -103.136 1893.9 -84.2853 1914.65C-64.1383 1936.82 -33.231 1946.19 -0.832499 1945.48C31.5621 1944.77 65.3742 1933.98 91.2439 1915.93C113.522 1900.39 121.346 1875.36 125.883 1847.34C128.154 1833.32 129.591 1818.63 131.623 1804C133.652 1789.39 136.269 1774.88 140.893 1761.34C145.327 1748.35 152.064 1735.7 159.361 1723.3C166.671 1710.87 174.517 1698.73 181.238 1686.66C194.674 1662.52 203.416 1638.99 193.99 1615.05Z" stroke="#00F0B5"/>
<path d="M158.254 1639.23C150.369 1619.2 133.937 1608.91 114.298 1603.07C94.6367 1597.22 71.8692 1595.86 51.3897 1593.63C30.4391 1591.36 7.13052 1587.22 -14.3361 1588.36C-35.7742 1589.49 -55.2577 1595.89 -68.583 1614.6C-81.5062 1632.75 -78.7718 1652.77 -72.5418 1673.97C-70.9853 1679.27 -69.2133 1684.63 -67.4179 1690.06C-65.6234 1695.47 -63.8051 1700.95 -62.1603 1706.46C-58.8708 1717.49 -56.2654 1728.69 -55.9197 1739.93C-55.5409 1752.26 -57.8762 1765.13 -61.0962 1777.99C-62.7066 1784.42 -64.5407 1790.86 -66.3699 1797.24C-68.1999 1803.62 -70.0254 1809.94 -71.6227 1816.13C-78.024 1840.96 -80.6876 1863.6 -65.5547 1880.26C-49.3648 1898.08 -24.521 1905.61 1.53735 1905.04C27.592 1904.47 54.788 1895.79 75.5933 1881.28C93.4898 1868.79 99.7815 1848.68 103.432 1826.13C105.26 1814.85 106.415 1803.04 108.052 1791.25C109.685 1779.49 111.792 1767.81 115.516 1756.9C119.088 1746.44 124.515 1736.25 130.389 1726.26C136.276 1716.26 142.586 1706.49 147.996 1696.78C158.808 1677.36 165.822 1658.45 158.254 1639.23Z" stroke="#00F0B5"/>
</g>
<g opacity="0.4">
<path d="M1968.29 844.22C2007.7 856.321 2042.71 843.986 2074.82 821.615C2106.94 799.231 2136.07 766.865 2163.69 739.01C2191.95 710.521 2225.86 680.649 2249.7 647.263C2273.53 613.9 2287.22 577.12 2275.11 534.844C2263.35 493.801 2230.08 474.018 2191.05 458.097C2181.3 454.118 2171.19 450.384 2160.98 446.619C2150.77 442.856 2140.46 439.061 2130.29 434.965C2109.97 426.774 2090.22 417.367 2073.1 404.552C2054.32 390.504 2037.95 371.777 2022.61 351.705C2014.95 341.667 2007.53 331.287 2000.2 320.983C1992.87 310.676 1985.62 300.445 1978.28 290.697C1948.89 251.665 1918.17 220.581 1875.09 223.359C1829.12 226.324 1788.25 254.5 1758.09 294.083C1727.94 333.664 1708.52 384.594 1705.43 432.939C1702.76 474.641 1725.37 508.037 1754.65 540.289C1769.3 556.423 1785.56 572.21 1801.16 588.63C1816.74 605.032 1831.63 622.03 1843.44 640.508C1854.76 658.225 1863.48 678.383 1871.38 698.996C1879.29 719.632 1886.36 740.678 1894.42 760.286C1910.52 799.491 1930.43 832.594 1968.29 844.22Z" stroke="#00F0B5"/>
<path d="M1973.92 772.309C2004.9 781.823 2032.44 772.129 2057.7 754.525C2082.98 736.908 2105.9 711.437 2127.66 689.5C2149.92 667.061 2176.61 643.552 2195.37 617.275C2214.12 591.021 2224.88 562.096 2215.36 528.853C2206.12 496.589 2179.97 481.029 2149.24 468.496C2141.56 465.365 2133.61 462.425 2125.57 459.461C2117.53 456.498 2109.41 453.51 2101.4 450.284C2085.4 443.833 2069.84 436.422 2056.34 426.324C2041.55 415.254 2028.66 400.501 2016.58 384.695C2010.54 376.79 2004.7 368.616 1998.93 360.503C1993.15 352.387 1987.45 344.333 1981.67 336.66C1958.53 305.926 1934.38 281.502 1900.52 283.685C1864.36 286.016 1832.22 308.177 1808.48 339.328C1784.75 370.476 1769.47 410.556 1767.04 448.599C1764.93 481.387 1782.71 507.652 1805.76 533.042C1817.3 545.744 1830.09 558.167 1842.38 571.101C1854.65 584.017 1866.38 597.405 1875.68 611.962C1884.6 625.921 1891.47 641.8 1897.69 658.032C1903.92 674.286 1909.49 690.847 1915.83 706.286C1928.51 737.151 1944.17 763.171 1973.92 772.309Z" stroke="#00F0B5"/>
<path d="M1978 720.351C2002.89 727.996 2025.02 720.211 2045.34 706.052C2065.68 691.879 2084.12 671.389 2101.64 653.727C2119.55 635.661 2141.03 616.75 2156.12 595.609C2171.2 574.492 2179.85 551.242 2172.2 524.525C2164.77 498.604 2143.76 486.095 2119.04 476.01C2112.86 473.49 2106.46 471.126 2099.99 468.74C2093.52 466.355 2086.98 463.949 2080.54 461.352C2067.65 456.159 2055.12 450.191 2044.25 442.056C2032.33 433.139 2021.94 421.255 2012.22 408.531C2007.36 402.168 2002.66 395.587 1998.01 389.058C1993.36 382.526 1988.77 376.045 1984.12 369.87C1965.5 345.132 1946.09 325.519 1918.9 327.273C1889.83 329.147 1863.98 346.96 1844.89 372.018C1825.8 397.073 1813.51 429.313 1811.55 459.912C1809.87 486.261 1824.15 507.375 1842.7 527.806C1851.98 538.03 1862.28 548.021 1872.17 558.436C1882.05 568.832 1891.49 579.614 1898.98 591.338C1906.17 602.582 1911.7 615.369 1916.71 628.435C1921.72 641.524 1926.2 654.845 1931.3 667.27C1941.5 692.109 1954.09 713.011 1978 720.351Z" stroke="#00F0B5"/>
</g>
</g>
<defs>
<linearGradient id="paint0_linear_2198_711" x1="1698.07" y1="1533.42" x2="1988.89" y2="2323.61" gradientUnits="userSpaceOnUse">
<stop stop-color="#F4F5F7" stop-opacity="0"/>
<stop offset="1" stop-color="#F4F5F7"/>
</linearGradient>
<clipPath id="clip0_2198_711">
<rect width="1920" height="3639" fill="white" transform="translate(-5)"/>
</clipPath>
</defs>
</svg>
