<svg width="11" height="12" viewBox="0 0 11 12" fill="none" xmlns="http://www.w3.org/2000/svg">
<path fill-rule="evenodd" clip-rule="evenodd" d="M0.361278 0.862254C0.621627 0.601905 1.04374 0.601905 1.30409 0.862254L5.49934 5.05751L9.69461 0.862254C9.95496 0.601905 10.3771 0.601905 10.6374 0.862255C10.8978 1.1226 10.8978 1.54471 10.6374 1.80506L6.44215 6.00032L10.6374 10.1956C10.8978 10.4559 10.8978 10.878 10.6374 11.1384C10.3771 11.3987 9.95496 11.3987 9.69461 11.1384L5.49934 6.94313L1.30409 11.1384C1.04374 11.3987 0.621628 11.3987 0.361278 11.1384C0.100928 10.878 0.100928 10.4559 0.361277 10.1956L4.55654 6.00032L0.361278 1.80506C0.100928 1.54471 0.100928 1.1226 0.361278 0.862254Z" fill="#9A9CA5"/>
</svg>
